<?xml version="1.0" encoding="UTF-8" standalone="no"?>
<!-- Generator: Blender, SVG Export for Grease Pencil - v2.1 -->

<svg
   version="1.1"
   x="0px"
   y="0px"
   width="60mm"
   height="80mm"
   viewBox="0 0 60 80"
   id="svg1"
   xmlns="http://www.w3.org/2000/svg"
   xmlns:svg="http://www.w3.org/2000/svg">
  <defs
     id="defs1" />
  <g
     id="blender_frame.1"
     style="fill:#000000;stroke-width:0.377953;stroke-dasharray:none"
     transform="translate(-10)" />
  <path
     id="path13"
     style="opacity:1;fill:#ffff00;fill-opacity:0.0117647;stroke:#000000;stroke-width:0.377953"
     d="m 20,70 c 0,5.522847 -4.477153,10 -10,10 m 0,0 C 4.477153,80 0,75.522847 0,70 m 60,0 c 0,5.522847 -4.477153,10 -10,10 m 0,0 C 44.477153,80 40,75.522847 40,70 M 0,30 C 0,13.431458 13.431458,0 30,0 46.568542,0 60,13.431458 60,30 M 20.140625,52 H 40 m 12.7,18.189003 c 0,1.491169 -1.208831,2.7 -2.7,2.7 -1.491169,0 -2.7,-1.208831 -2.7,-2.7 0,-1.491169 1.208831,-2.7 2.7,-2.7 1.491169,0 2.7,1.208831 2.7,2.7 z m -40,-2.3e-5 c 0,1.491169 -1.208831,2.7 -2.7,2.7 -1.491169,0 -2.7,-1.208831 -2.7,-2.7 0,-1.491169 1.208831,-2.7 2.7,-2.7 1.491169,0 2.7,1.208831 2.7,2.7 z m 0.288976,-24.500004 c 0,0.938884 0.761126,1.7 1.700023,1.7 0.938897,0 1.700024,-0.761116 1.700024,-1.7 0,-0.938884 -0.761127,-1.7 -1.700024,-1.7 -0.938897,0 -1.700023,0.761116 -1.700023,1.7 z m 31,0 c 0,0.938884 0.761126,1.7 1.700023,1.7 0.938897,0 1.700024,-0.761116 1.700024,-1.7 0,-0.938884 -0.761127,-1.7 -1.700024,-1.7 -0.938897,0 -1.700023,0.761116 -1.700023,1.7 z m 0,-31 c 0,0.938884 0.761126,1.7 1.700023,1.7 0.938897,0 1.700024,-0.761116 1.700024,-1.7 0,-0.938884 -0.761127,-1.7 -1.700024,-1.7 -0.938897,0 -1.700023,0.761116 -1.700023,1.7 z m -31,0 c 0,0.938884 0.761126,1.7 1.700023,1.7 0.938897,0 1.700024,-0.761116 1.700024,-1.7 0,-0.938884 -0.761127,-1.7 -1.700024,-1.7 -0.938897,0 -1.700023,0.761116 -1.700023,1.7 z m 29.7,15.5 c 0,6.903559 -5.596441,12.5 -12.5,12.5 -6.903559,0 -12.5,-5.596441 -12.5,-12.5 0,-6.903559 5.596441,-12.5 12.5,-12.5 6.903559,0 12.5,5.596441 12.5,12.5 z" />
  <path
     style="fill:none;fill-rule:evenodd;stroke:#000000;stroke-width:0.377953;stroke-linecap:butt;stroke-linejoin:miter;stroke-dasharray:none;stroke-opacity:1"
     d="M 20,70 20.140625,52"
     id="path14" />
  <path
     style="fill:none;fill-rule:evenodd;stroke:#000000;stroke-width:0.377953;stroke-linecap:butt;stroke-linejoin:miter;stroke-dasharray:none;stroke-opacity:1"
     d="M 0,70 V 30"
     id="path15" />
  <path
     style="fill:none;fill-rule:evenodd;stroke:#000000;stroke-width:0.377953;stroke-linecap:butt;stroke-linejoin:miter;stroke-dasharray:none;stroke-opacity:1"
     d="M 40,70 V 52"
     id="path16" />
  <path
     style="fill:none;fill-rule:evenodd;stroke:#000000;stroke-width:0.377953;stroke-linecap:butt;stroke-linejoin:miter;stroke-dasharray:none;stroke-opacity:1"
     d="M 60,70 V 30"
     id="path17" />
</svg>
