solid SkipCore350_160x120x200_triangle_squareness_gauge
  facet normal 0 0 1
    outer loop
      vertex 0 0 3
      vertex 160 0 3
      vertex 130 10 3
    endloop
  endfacet
  facet normal 0 0 1
    outer loop
      vertex 0 0 3
      vertex 130 10 3
      vertex 10 10 3
    endloop
  endfacet
  facet normal 0 0 1
    outer loop
      vertex 0 0 3
      vertex 10 10 3
      vertex 10 100 3
    endloop
  endfacet
  facet normal 0 0 1
    outer loop
      vertex 0 0 3
      vertex 10 100 3
      vertex 0 120 3
    endloop
  endfacet
  facet normal 0 -0 1
    outer loop
      vertex 160 0 3
      vertex 0 120 3
      vertex 10 100 3
    endloop
  endfacet
  facet normal 0 0 1
    outer loop
      vertex 160 0 3
      vertex 10 100 3
      vertex 130 10 3
    endloop
  endfacet
  facet normal 0 0 -1
    outer loop
      vertex 130 10 0
      vertex 160 0 0
      vertex 0 0 0
    endloop
  endfacet
  facet normal 0 0 -1
    outer loop
      vertex 10 10 0
      vertex 130 10 0
      vertex 0 0 0
    endloop
  endfacet
  facet normal 0 0 -1
    outer loop
      vertex 10 100 0
      vertex 10 10 0
      vertex 0 0 0
    endloop
  endfacet
  facet normal 0 0 -1
    outer loop
      vertex 0 120 0
      vertex 10 100 0
      vertex 0 0 0
    endloop
  endfacet
  facet normal 0 0 -1
    outer loop
      vertex 10 100 0
      vertex 0 120 0
      vertex 160 0 0
    endloop
  endfacet
  facet normal 0 0 -1
    outer loop
      vertex 130 10 0
      vertex 10 100 0
      vertex 160 0 0
    endloop
  endfacet
  facet normal 0 -1 0
    outer loop
      vertex 0 0 0
      vertex 160 0 0
      vertex 160 0 3
    endloop
  endfacet
  facet normal 0 -1 0
    outer loop
      vertex 0 0 0
      vertex 160 0 3
      vertex 0 0 3
    endloop
  endfacet
  facet normal 0.6 0.8 0
    outer loop
      vertex 160 0 0
      vertex 0 120 0
      vertex 0 120 3
    endloop
  endfacet
  facet normal 0.6 0.8 -0
    outer loop
      vertex 160 0 0
      vertex 0 120 3
      vertex 160 0 3
    endloop
  endfacet
  facet normal -1 0 0
    outer loop
      vertex 0 120 0
      vertex 0 0 0
      vertex 0 0 3
    endloop
  endfacet
  facet normal -1 0 0
    outer loop
      vertex 0 120 0
      vertex 0 0 3
      vertex 0 120 3
    endloop
  endfacet
  facet normal 0 1 0
    outer loop
      vertex 130 10 0
      vertex 10 10 0
      vertex 10 10 3
    endloop
  endfacet
  facet normal 0 1 -0
    outer loop
      vertex 130 10 0
      vertex 10 10 3
      vertex 130 10 3
    endloop
  endfacet
  facet normal -0.6 -0.8 0
    outer loop
      vertex 10 100 0
      vertex 130 10 0
      vertex 130 10 3
    endloop
  endfacet
  facet normal -0.6 -0.8 0
    outer loop
      vertex 10 100 0
      vertex 130 10 3
      vertex 10 100 3
    endloop
  endfacet
  facet normal 1 0 0
    outer loop
      vertex 10 10 0
      vertex 10 100 0
      vertex 10 100 3
    endloop
  endfacet
  facet normal 1 0 0
    outer loop
      vertex 10 10 0
      vertex 10 100 3
      vertex 10 10 3
    endloop
  endfacet
endsolid SkipCore350_160x120x200_triangle_squareness_gauge
